PathFileType	4	(X/Y/Z)	regression/subject01/trials/walk2/markers.trc
DataRate	CameraRate	NumFrames	NumMarkers	Units	OrigDataRate	OrigDataStartFrame	OrigNumFrames
200.00000000000426	200.00000000000426	4	64	m	200.00000000000426	111	223
Frame#	Time	CLAV			C7			RACR			RASH			RPSH			RLEL			RMEL			RUA1			RUA2			RUA3			RFAsuperior			RFAradius			RFAulna			RASI			RPSI			RCAL			RTOE			RMT5			RTH1			RTH2			RTH3			RTB1			RTB2			RTB3			RLFC			RMFC			RLMAL			RMMAL			RHJC			RKJC			REJC			RAJC			RSJC			LACR			LASH			LPSH			LLEL			LMEL			LUA1			LUA2			LUA3			LFAsuperior			LFAradius			LFAulna			LASI			LPSI			LCAL			LTOE			LMT5			LTH1			LTH2			LTH3			LTB1			LTB2			LTB3			LLFC			LMFC			LLMAL			LMMAL			LHJC			LKJC			LEJC			LAJC			LSJC			
		X1	Y1	Z1	X2	Y2	Z2	X3	Y3	Z3	X4	Y4	Z4	X5	Y5	Z5	X6	Y6	Z6	X7	Y7	Z7	X8	Y8	Z8	X9	Y9	Z9	X10	Y10	Z10	X11	Y11	Z11	X12	Y12	Z12	X13	Y13	Z13	X14	Y14	Z14	X15	Y15	Z15	X16	Y16	Z16	X17	Y17	Z17	X18	Y18	Z18	X19	Y19	Z19	X20	Y20	Z20	X21	Y21	Z21	X22	Y22	Z22	X23	Y23	Z23	X24	Y24	Z24	X25	Y25	Z25	X26	Y26	Z26	X27	Y27	Z27	X28	Y28	Z28	X29	Y29	Z29	X30	Y30	Z30	X31	Y31	Z31	X32	Y32	Z32	X33	Y33	Z33	X34	Y34	Z34	X35	Y35	Z35	X36	Y36	Z36	X37	Y37	Z37	X38	Y38	Z38	X39	Y39	Z39	X40	Y40	Z40	X41	Y41	Z41	X42	Y42	Z42	X43	Y43	Z43	X44	Y44	Z44	X45	Y45	Z45	X46	Y46	Z46	X47	Y47	Z47	X48	Y48	Z48	X49	Y49	Z49	X50	Y50	Z50	X51	Y51	Z51	X52	Y52	Z52	X53	Y53	Z53	X54	Y54	Z54	X55	Y55	Z55	X56	Y56	Z56	X57	Y57	Z57	X58	Y58	Z58	X59	Y59	Z59	X60	Y60	Z60	X61	Y61	Z61	X62	Y62	Z62	X63	Y63	Z63	X64	Y64	Z64	

112	3.935	1.671886861258301	1.439268924203973	-0.5125081290403575	1.565654004279912	1.520093209292831	-0.4872398286226178	1.670618642549073	1.48469315712454	-0.3579756639694402	1.717766225471903	1.419662222641761	-0.32381397135054	1.622703468046339	1.442649718631104	-0.3035975417244086	1.634992856516554	1.107177474426026	-0.2057458974476602	1.622970998021258	1.084088378718865	-0.2913895209269253	1.662774856262066	1.375881121336424	-0.2823248869560621	1.63400980185724	1.199537554145383	-0.246263513099453	1.681824065981048	1.276747673875327	-0.2605188683438286	1.716773540653368	1.066286321622707	-0.2600222542431008	1.880971469819888	1.016877104797047	-0.2705708129043626	1.859816563100567	0.9595779507695875	-0.2578878793237622	1.641649408208128	1.006731150453976	-0.3678168751741218	1.486029430424526	1.044538018056279	-0.4591562447771	1.191407800103142	0.07836035480542769	-0.4388327144726171	1.44344627179405	0.04036362416875538	-0.4565012351787573	1.367179034712742	0.01321493728409435	-0.3667660478162424	1.546892540194666	0.755376276666188	-0.348871755423978	1.607570745887254	0.657707355067422	-0.4118060701305128	1.501494064393808	0.6101372966897691	-0.3552222033060517	1.390159598549148	0.3357125164020289	-0.3754441080485469	1.398232428446603	0.2363401421199399	-0.4376773748097387	1.336407536935162	0.1756874365238355	-0.3724892761375146	1.465122426925221	0.5106981502324029	-0.3681893680277538	1.47243663189949	0.5098111978625592	-0.4817189437322724	1.272427856502851	0.08028522095083868	-0.3782971005504868	1.286964459675503	0.07669746402864114	-0.4818962245434965	1.565597994102699	0.9077419334149834	-0.4218219515433563	1.470018471480064	0.5089950096490969	-0.4267973877590915	1.633821809348847	1.089623990076292	-0.2539876470134013	1.262759626078389	0.07141541742153851	-0.4391639516040063	1.673234076755898	1.430430715137969	-0.3143435848921787	1.612012073714653	1.498851980728717	-0.6496581245481328	1.641126866226891	1.438177607354916	-0.705244881338061	1.538459088207282	1.463004103023406	-0.6834111373418392	1.445756122032729	1.14274780325664	-0.7309714770128141	1.447246936701332	1.136250882208856	-0.6417076689384287	1.564333102640916	1.396711109241485	-0.7142391762137807	1.479866963484598	1.235249977361152	-0.7096917640984033	1.549372497589608	1.294648591334361	-0.7192629177590568	1.459912292411034	1.047239556883979	-0.6855688104675549	1.47446046075287	0.8763332116066807	-0.6952059615809857	1.412172699671793	0.8753868122734034	-0.6919015580668496	1.649493895884134	1.003568485231698	-0.6331691528694048	1.4887772971064	1.043430159551153	-0.5521072076638833	1.839858427393305	0.05175710332474497	-0.5750190823990194	2.080789886248064	0.1358262477158632	-0.5622233615998364	2.023450518296273	0.07856319025754654	-0.6518854251271619	1.651606565343961	0.7764570873591893	-0.6558316979818908	1.760799833510264	0.7386918082765208	-0.5939252787437449	1.70826692783066	0.6351751315707965	-0.6508594359798372	1.809834697124318	0.3573819547592611	-0.6351233359633774	1.887268178697575	0.2917185679885479	-0.5759169645661509	1.883409594638109	0.2055561314187502	-0.6415805158593941	1.743022016398437	0.5350423311699366	-0.6388305821789497	1.750050145904597	0.5381911773316483	-0.5253231418851323	1.904750167946952	0.09262057941274515	-0.6372383858730907	1.921149833892306	0.0995621380736586	-0.5340888388848036	1.570315775876957	0.9058398634570718	-0.5814084269351981	1.747246224940069	0.5366384713228225	-0.5804314187553936	1.450544740288136	1.133050904119737	-0.6807738491029046	1.906129811946198	0.079117564108454	-0.5764709043431834	1.596594717510886	1.448946099851123	-0.6957744948796998	
113	3.94	1.678498489135772	1.438647056649837	-0.5132922867642292	1.572226546596361	1.51943876718583	-0.4880842383374766	1.677233203502917	1.484221927567768	-0.3588041568995309	1.724421913214419	1.419249909991834	-0.3245871893887624	1.629350362599829	1.442205941732702	-0.3043763576767859	1.642127943057434	1.106791111546244	-0.2062318284724673	1.630080724016399	1.083616272320696	-0.2918487251994616	1.669516805874956	1.375467062698945	-0.2830492384306921	1.641000663407405	1.19911652702225	-0.2468246209128649	1.688706891754124	1.276376027713838	-0.2611740782327099	1.723952253556222	1.066083672041396	-0.2605853386444723	1.888286511176846	1.017164237189271	-0.2712925047380748	1.86732689145108	0.9598205595164342	-0.2584871579375885	1.64806048926477	1.005788911436169	-0.3681211341228418	1.492685419965808	1.043862940139136	-0.4597659558063646	1.192267615051613	0.08078261859298819	-0.4389381069129613	1.443867509446141	0.03986877488085513	-0.4563412649214746	1.36716887134933	0.01346439877555335	-0.3667517882004465	1.55255839473089	0.7548280610896221	-0.3491444410445842	1.613213810105167	0.6568109381490852	-0.4115572206346076	1.506753430020692	0.6097085253311594	-0.3553037143036902	1.393518011475766	0.3360229122174365	-0.3754329116862035	1.400722688631911	0.2364987840012669	-0.4375300885517394	1.338083212356636	0.1765735207875535	-0.3724469497540818	1.470140556243321	0.5103438781269152	-0.3681626248708428	1.477939324783035	0.5091317064231891	-0.4816569361273312	1.273123389313702	0.08184035683407376	-0.3783259042923394	1.287911347766548	0.07797947237827063	-0.4818796255179272	1.572032408154975	0.9069417917472004	-0.4224185444020825	1.475332467191689	0.508398853939882	-0.4267588402209437	1.640948426911595	1.089196501410807	-0.2544583875586461	1.26353301870507	0.07300129531169408	-0.4392095427706111	1.679885645329014	1.430003663060844	-0.315119425273287	1.618567234250886	1.498063470799812	-0.6504899051600753	1.647704876500224	1.437350389602968	-0.7060223986525511	1.545027601836467	1.462142903883105	-0.6841947004036166	1.452503093141709	1.141762035149879	-0.7312377987613153	1.454157104877578	1.135338188646289	-0.6419715767918945	1.570914447457325	1.395829572696199	-0.7149200617482842	1.486580538805954	1.234307449723072	-0.7100930159813492	1.556023357290308	1.293751600438287	-0.7198351667835414	1.466771797831578	1.046298279184629	-0.6857672981884366	1.481376628482566	0.8753898699611382	-0.6952813571582227	1.419092758899489	0.8744218463943075	-0.6919105330886616	1.656501989621723	1.002941016567593	-0.6334586555607695	1.495642415825059	1.042865343387626	-0.5527117496840794	1.846087171454968	0.05085755990896879	-0.5740271477089355	2.086943575990646	0.1350973900072757	-0.5609442277572542	2.029747490175701	0.07780676032367312	-0.6506801627023435	1.658476652926073	0.7756951978200736	-0.6560721157799941	1.767448248703573	0.7378651093205706	-0.593815657659217	1.714969609623918	0.6343565436605085	-0.6508145705511978	1.816301419807366	0.3565145310251878	-0.6345608730941371	1.893551959877345	0.2908748611472526	-0.5750898159150788	1.889840347604382	0.2046576846992316	-0.640689957185466	1.749581300708914	0.5341966445568893	-0.6385993066152346	1.75628213547978	0.5374348341479878	-0.5250745878086872	1.911129622760866	0.09171847524177512	-0.636193870074937	1.927253454129596	0.09874248549942632	-0.5330064257537207	1.577109241490215	0.9052290289689419	-0.581996145179688	1.753628379961847	0.5358394632961488	-0.580191027303634	1.45738811982967	1.132109261752054	-0.6810409557785424	1.912340643320922	0.07826691943779884	-0.5754113830658006	1.60316860861482	1.448104142671978	-0.6965546345370758	
114	3.945	1.685128963982735	1.438094627898324	-0.5140917628611039	1.578804563686436	1.518837060104688	-0.4889471111246036	1.68385965257903	1.483826997128828	-0.3596502162192244	1.731100496027768	1.418923451721369	-0.3253752871667747	1.636016437098525	1.441833036869562	-0.3051705972676983	1.649150664083477	1.106512468182843	-0.2066959998889301	1.637092036498146	1.083243498095595	-0.2922857550980118	1.676253940115983	1.375140014923595	-0.2837835122841711	1.647919705934175	1.198797518233586	-0.2473774720783938	1.69554681553644	1.276088445850997	-0.2618202050099024	1.731007084226616	1.065912393014453	-0.2610921100034369	1.895440627358591	1.01734822107238	-0.2718918246466228	1.874626739265977	0.9599814912207796	-0.2589527248565556	1.654540967972983	1.004884418544068	-0.3684269817088728	1.499417493459291	1.04323096560242	-0.4603838582665167	1.193216422426018	0.08337967126770318	-0.4390651527908889	1.444311138558506	0.03936085864973396	-0.4561855219854276	1.367163596527253	0.01377200338499717	-0.3667449621295098	1.558326105845066	0.7543282574256053	-0.3494245755599958	1.618974697393853	0.6559691851300951	-0.4113037489564967	1.512140273787867	0.60932104576635	-0.355381804943425	1.396995299437095	0.3363958567457282	-0.3754203323730602	1.403306971045189	0.2367297083190401	-0.4373867789718726	1.339847575216025	0.17755273605294	-0.372413344789558	1.475304016415572	0.5100240726402839	-0.3681249792747654	1.483589544939876	0.5084757206435482	-0.4815807039506369	1.27389340365436	0.08351400537897818	-0.3783696402585198	1.288928448076166	0.07937718809363403	-0.4818771158611685	1.578544140369787	0.9061833272446371	-0.4230329129034465	1.480794600601425	0.5078272997591828	-0.4267073566525053	1.647969037570496	1.088870170413114	-0.2549050825771234	1.264379059588195	0.07470889688737836	-0.4392701244339515	1.686558368622364	1.42965544688404	-0.3159104001835523	1.625130722941344	1.497327966793466	-0.6513392572327061	1.654301126501563	1.436578565898202	-0.7068148023382508	1.55161034285798	1.461320917858252	-0.6849937372472483	1.459387987815741	1.140773562362539	-0.7315863531076069	1.461181912175339	1.134416612832318	-0.6423180442209687	1.577536605470431	1.394986287566484	-0.7156293641183098	1.493392337230335	1.233372724865162	-0.7105595315446951	1.562753458127353	1.292888034523173	-0.7204481320410888	1.473798981314218	1.045356945974602	-0.6860519054366397	1.488540803359057	0.8744540032075561	-0.6954522020325379	1.426260448563297	0.8734358313472917	-0.6920315782074304	1.663599751995181	1.002379741288296	-0.6337476080087616	1.502590719273518	1.042353595471413	-0.5533237339008967	1.851463828235949	0.04988194005005113	-0.5729409621701681	2.092458161714061	0.1337078836678872	-0.5597401370699101	2.035213975678645	0.07649608914262573	-0.6494956953095278	1.665381497441388	0.7749845583818881	-0.6563741905238418	1.77422113192285	0.7371513360218386	-0.5938892154360977	1.721756548198019	0.6336093771388187	-0.6508403962910276	1.822573371959867	0.3555950197229143	-0.6340237981997257	1.899524410145179	0.2898334706167552	-0.5742996387151136	1.895733740098684	0.2035414963056842	-0.6397968302970799	1.756270707744251	0.5334387794661657	-0.6384383249335355	1.762787002757811	0.5368190437145077	-0.5249070052395073	1.916721896735446	0.09055373325580218	-0.6351090002187191	1.932638483228112	0.09766944299402752	-0.5318956664241276	1.583992216512169	0.9046769802152674	-0.5826003527148288	1.760244336977292	0.5351508281058937	-0.5800217198802616	1.464358502560105	1.131162872300183	-0.6813898274793284	1.917765538755395	0.07717760757710684	-0.5743067656831188	1.609758999096158	1.447310561060874	-0.6973499153550284	
115	3.95	1.691777955278347	1.437612608602374	-0.5149061038615875	1.585386164763132	1.518287657584592	-0.4898303117385018	1.690495387609371	1.483511882036853	-0.3605141876406532	1.737800109180496	1.418687764395322	-0.3261771035065562	1.642699280789981	1.441534655410748	-0.3059803498464502	1.656053156707423	1.106345447756193	-0.2071401307481555	1.643997897870817	1.082974659571673	-0.292702614693692	1.682982981415299	1.374904191122567	-0.2845275774666837	1.654760818685555	1.19858476283296	-0.2479232953745281	1.702338991839721	1.275888702601616	-0.2624573908439092	1.737930651757204	1.065774783977362	-0.2615429901661607	1.902426498112379	1.017427387178438	-0.2723665059716169	1.881707052578727	0.960059236596731	-0.2592829357253794	1.661091970050218	1.004014550728326	-0.3687277938201244	1.506229974924221	1.04263957979432	-0.4610082725682493	1.194260330274575	0.08615283715571741	-0.4392158565285725	1.444775929787778	0.03884164497234784	-0.4560356326875097	1.367164385191246	0.01414297941874343	-0.3667463804352081	1.564202950064775	0.7538732226801619	-0.3497117543203504	1.624859405446746	0.6551794700821888	-0.4110479465606932	1.5176623087783	0.6089709013862097	-0.3554560636959389	1.400598129716944	0.3368288742840205	-0.3754067277024825	1.405989556160072	0.2370321396946595	-0.4372497801092928	1.341706607800496	0.1786241636412298	-0.3723901856103224	1.4806205589217	0.5097346329115271	-0.3680758500656592	1.489391738325632	0.5078405199695406	-0.4814898156368667	1.27474351237726	0.08530654720471836	-0.378430002065801	1.290018561613045	0.08089260978398954	-0.481890880425407	1.585137634655332	0.9054639940585246	-0.4236637352962508	1.486410876345834	0.5072768100084644	-0.4266424097222203	1.654876190819726	1.088649222114689	-0.2553295581653099	1.265301794509282	0.07653974427973165	-0.4393473130827536	1.693250126120959	1.429390390491498	-0.3167159342544795	1.631702575032636	1.49664310088051	-0.6522072391290891	1.660917200426304	1.435859358267797	-0.70762186314528	1.558208305764547	1.460534000564457	-0.6858093691923656	1.466413261249474	1.139778966260554	-0.732020657310118	1.468321764869838	1.133482880962438	-0.6427504110504157	1.584201383368805	1.394177842359357	-0.7163681452368738	1.500304226555287	1.232442390437946	-0.7110941145785422	1.569564833177968	1.29205455109095	-0.7211031239249071	1.480995170586511	1.044412303161997	-0.6864256781069851	1.495954464744263	0.8735225238335733	-0.6957211382415368	1.433677191147632	0.8724256642922588	-0.692268888642705	1.670798628478971	1.001888158778038	-0.6340288095658297	1.509630146406457	1.041894720240181	-0.5539412787688716	1.855984070345335	0.04883215365086928	-0.5717847301810837	2.097325180092311	0.1316590341435779	-0.5586129425555332	2.039849119163879	0.07463658102154894	-0.6483408020121184	1.672329295108288	0.7743249957980077	-0.6567366843379807	1.781120222497161	0.7365396019940914	-0.5941380502245185	1.728626566104463	0.6329294308809386	-0.6509381846957696	1.828642612548061	0.3546201039704686	-0.6335208905782886	1.905175420035357	0.2885918097149577	-0.5735541282794739	1.901084833006957	0.2022091983853925	-0.6389136545375269	1.763081741995369	0.5327616103180182	-0.6383510563800293	1.769547967959917	0.5363302894561353	-0.5248226401594875	1.921524333802874	0.08913044072389081	-0.6340009728040711	1.937297159101929	0.09634311308390336	-0.5307723010933321	1.590975351293499	0.9041851529662402	-0.5832193810531414	1.767080123645786	0.5345620724262687	-0.5799264007761176	1.471457198745086	1.130208413360404	-0.6818237871170989	1.922399383048992	0.07585148418904408	-0.5731747839252442	1.616367217366767	1.446561984363973	-0.6981606938932033	
